<svg width="109" height="108" viewBox="0 0 109 108" fill="none" xmlns="http://www.w3.org/2000/svg">
<ellipse cx="54.5516" cy="53.9902" rx="53.9632" ry="53.5586" fill="#EBF8E8"/>
<ellipse cx="54.5517" cy="53.9909" rx="39.4853" ry="39.1892" fill="#C5EBBA"/>
<path opacity="0.99" d="M49.9143 63.7945C49.6046 63.7949 49.2978 63.7331 49.0117 63.6127C48.7256 63.4923 48.4657 63.3156 48.2471 63.0928L41.6148 56.3573C41.1772 55.9072 40.9326 55.2997 40.9346 54.6672C40.9365 54.0347 41.1848 53.4287 41.6251 52.9814C42.0655 52.5342 42.6622 52.2821 43.285 52.28C43.9078 52.278 44.506 52.5263 44.9492 52.9707L49.9142 58.0131L62.8381 44.888C63.2812 44.4436 63.8795 44.1953 64.5023 44.1973C65.1251 44.1993 65.7218 44.4514 66.1621 44.8987C66.6025 45.3459 66.8508 45.9519 66.8527 46.5844C66.8546 47.2169 66.6101 47.8245 66.1725 48.2745L51.5815 63.0929C51.3628 63.3157 51.1029 63.4923 50.8168 63.6127C50.5307 63.7331 50.224 63.7949 49.9143 63.7945Z" fill="white"/>
<path d="M53.8935 30.041C49.2295 30.041 44.6703 31.4456 40.7923 34.0771C36.9144 36.7087 33.8919 40.449 32.1071 44.8251C30.3222 49.2012 29.8552 54.0165 30.7651 58.6622C31.675 63.3078 33.921 67.5751 37.2189 70.9244C40.5168 74.2737 44.7186 76.5547 49.293 77.4787C53.8674 78.4028 58.6088 77.9285 62.9178 76.1159C67.2267 74.3033 70.9096 71.2337 73.5008 67.2953C76.092 63.3569 77.475 58.7266 77.475 53.99C77.4679 47.6405 74.9811 41.5532 70.5603 37.0635C66.1394 32.5738 60.1455 30.0483 53.8935 30.041ZM66.1724 48.274L51.5814 63.0924C51.3624 63.3149 51.1025 63.4913 50.8164 63.6117C50.5304 63.7321 50.2237 63.7941 49.9141 63.7941C49.6044 63.7941 49.2978 63.7321 49.0117 63.6117C48.7256 63.4913 48.4657 63.3149 48.2468 63.0924L41.6146 56.3568C41.177 55.9068 40.9325 55.2992 40.9345 54.6667C40.9364 54.0342 41.1847 53.4282 41.625 52.981C42.0654 52.5337 42.6621 52.2816 43.2849 52.2796C43.9076 52.2776 44.5059 52.5259 44.9491 52.9703L49.9141 58.0126L62.838 44.8875C63.2811 44.4431 63.8794 44.1948 64.5022 44.1968C65.1249 44.1988 65.7217 44.4509 66.162 44.8982C66.6024 45.3454 66.8506 45.9514 66.8526 46.5839C66.8545 47.2164 66.61 47.824 66.1724 48.274Z" fill="#53C330"/>
</svg>
