<svg width="105" height="94" viewBox="0 0 105 94" fill="none" xmlns="http://www.w3.org/2000/svg">
<rect width="105" height="94" fill="white"/>
<path d="M64.9425 78.3335H28.4375C22.4044 78.3335 17.5 73.9429 17.5 68.5418C17.5 63.1407 22.4044 58.7502 28.4375 58.7502H59.0625C67.5062 58.7502 74.375 52.601 74.375 45.0418C74.375 37.4827 67.5062 31.3335 59.0625 31.3335H37.7956C36.1889 34.153 34.1993 36.7841 31.8719 39.1668H59.0625C62.6806 39.1668 65.625 41.8027 65.625 45.0418C65.625 48.2809 62.6806 50.9168 59.0625 50.9168H28.4375C17.5831 50.9168 8.75 58.8246 8.75 68.5418C8.75 78.2591 17.5831 86.1668 28.4375 86.1668H70.4069C68.2601 83.7493 66.4268 81.1214 64.9425 78.3335ZM21.875 7.8335C14.6387 7.8335 8.75 13.1053 8.75 19.5835C8.75 32.0698 21.875 39.1668 21.875 39.1668C21.875 39.1668 35 32.0659 35 19.5835C35 13.1053 29.1112 7.8335 21.875 7.8335ZM21.875 25.4585C21.0129 25.4582 20.1593 25.306 19.363 25.0104C18.5666 24.7148 17.8431 24.2817 17.2337 23.7358C16.6243 23.1899 16.141 22.5419 15.8114 21.8287C15.4817 21.1156 15.3122 20.3514 15.3125 19.5796C15.3128 18.8078 15.4829 18.0436 15.813 17.3307C16.1432 16.6178 16.627 15.9701 17.2368 15.4245C17.8466 14.879 18.5704 14.4463 19.367 14.1512C20.1636 13.8561 21.0173 13.7043 21.8794 13.7046C23.6204 13.7051 25.29 14.3248 26.5207 15.4273C27.7514 16.5298 28.4425 18.0248 28.4419 19.5835C28.4413 21.1422 27.7491 22.6368 26.5176 23.7386C25.286 24.8403 23.6161 25.459 21.875 25.4585Z" fill="#F22727" fill-opacity="0.68"/>
<path d="M83.125 54.8335C75.8887 54.8335 70 60.1053 70 66.5835C70 79.0698 83.125 86.1668 83.125 86.1668C83.125 86.1668 96.25 79.0659 96.25 66.5835C96.25 60.1053 90.3612 54.8335 83.125 54.8335ZM83.125 72.4585C82.2629 72.4582 81.4093 72.306 80.613 72.0104C79.8166 71.7148 79.0931 71.2817 78.4837 70.7358C77.8743 70.1899 77.391 69.5419 77.0614 68.8287C76.7317 68.1156 76.5622 67.3514 76.5625 66.5796C76.5628 65.8078 76.7329 65.0436 77.063 64.3307C77.3932 63.6178 77.877 62.9701 78.4868 62.4245C79.0966 61.879 79.8204 61.4463 80.617 61.1512C81.4136 60.8561 82.2673 60.7043 83.1294 60.7046C84.8704 60.7051 86.54 61.3248 87.7707 62.4273C89.0014 63.5298 89.6925 65.0248 89.6919 66.5835C89.6913 68.1422 88.9991 69.6368 87.7676 70.7386C86.5361 71.8403 84.8661 72.459 83.125 72.4585Z" fill="#F22727" fill-opacity="0.68"/>
</svg>
