<svg width="14" height="12" viewBox="0 0 14 12" fill="none" xmlns="http://www.w3.org/2000/svg">
<path d="M11.7894 2.57894H10.2105C10.0973 2.57894 9.99683 2.50683 9.96103 2.39895L9.79472 1.9C9.61524 1.36158 9.11368 1 8.5463 1H6.08524C5.51788 1 5.01629 1.36158 4.83735 1.89948L4.67105 2.39895C4.63473 2.50683 4.5342 2.57894 4.42106 2.57894H2.84211C1.82631 2.57894 1 3.40528 1 4.42106V9.15789C1 10.1737 1.82631 11 2.84211 11H11.7895C12.8053 11 13.6316 10.1737 13.6316 9.15789V4.42106C13.6316 3.40528 12.8053 2.57894 11.7894 2.57894ZM13.1053 9.15789C13.1053 9.88314 12.5147 10.4737 11.7895 10.4737H2.84211C2.11686 10.4737 1.52633 9.88314 1.52633 9.15789V4.42106C1.52633 3.6958 2.11686 3.10528 2.84211 3.10528H4.42106C4.76105 3.10528 5.06211 2.88844 5.16999 2.5658L5.33684 2.06579C5.44421 1.74316 5.74527 1.52631 6.08526 1.52631H8.54632C8.88631 1.52631 9.18737 1.74314 9.29526 2.06631L9.46157 2.56577C9.56945 2.88839 9.87051 3.10525 10.2105 3.10525H11.7894C12.5147 3.10525 13.1052 3.69578 13.1052 4.42103V9.15789H13.1053Z" fill="white" stroke="white" stroke-width="0.2"/>
<path d="M7.3156 3.63135C5.57403 3.63135 4.15771 5.04766 4.15771 6.78924C4.15771 8.53081 5.57403 9.94713 7.3156 9.94713C9.05718 9.94713 10.4735 8.53081 10.4735 6.78924C10.4735 5.04766 9.05718 3.63135 7.3156 3.63135ZM7.3156 9.42082C5.86455 9.42082 4.68402 8.24029 4.68402 6.78924C4.68402 5.33819 5.86455 4.15765 7.3156 4.15765C8.76665 4.15765 9.94719 5.33819 9.94719 6.78924C9.94719 8.24029 8.76665 9.42082 7.3156 9.42082Z" fill="white" stroke="white" stroke-width="0.2"/>
<path d="M7.3157 4.68408C6.15466 4.68408 5.21045 5.62829 5.21045 6.78933C5.21045 6.9346 5.32835 7.0525 5.47361 7.0525C5.61888 7.0525 5.73676 6.9346 5.73676 6.78933C5.73676 5.91882 6.44518 5.21039 7.3157 5.21039C7.46096 5.21039 7.57887 5.09249 7.57887 4.94722C7.57887 4.80196 7.46096 4.68408 7.3157 4.68408Z" fill="white" stroke="white" stroke-width="0.2"/>
</svg>
