<svg width="32" height="33" viewBox="0 0 32 33" fill="none" xmlns="http://www.w3.org/2000/svg">
<path d="M28.0799 16.6377L27.8666 16.3444C27.4933 15.8911 27.0533 15.5311 26.5466 15.2644C25.8666 14.8777 25.0933 14.6777 24.2933 14.6777H7.69327C6.89327 14.6777 6.13327 14.8777 5.43994 15.2644C4.91994 15.5444 4.45327 15.9311 4.0666 16.4111C3.3066 17.3844 2.9466 18.5844 3.0666 19.7844L3.55994 26.0111C3.73327 27.8911 3.95994 30.2111 8.1866 30.2111H23.8133C28.0399 30.2111 28.2533 27.8911 28.4399 25.9977L28.9333 19.7977C29.0533 18.6777 28.7599 17.5577 28.0799 16.6377ZM19.1866 23.9977H12.7999C12.2799 23.9977 11.8666 23.5711 11.8666 23.0644C11.8666 22.5577 12.2799 22.1311 12.7999 22.1311H19.1866C19.7066 22.1311 20.1199 22.5577 20.1199 23.0644C20.1199 23.5844 19.7066 23.9977 19.1866 23.9977Z" fill="#3366FF"/>
<path opacity="0.4" d="M4.50684 15.9583C4.80017 15.6916 5.0935 15.4516 5.44017 15.2649C6.12017 14.8783 6.8935 14.6783 7.6935 14.6783H24.3068C25.1068 14.6783 25.8668 14.8783 26.5602 15.2649C26.9068 15.4516 27.2135 15.6916 27.4935 15.9716V15.2649V13.9716C27.4935 9.21159 26.0402 7.75826 21.2802 7.75826H18.1068C17.5202 7.75826 17.5068 7.74492 17.1602 7.29159L15.5602 5.14492C14.8002 4.15826 14.2002 3.54492 12.2935 3.54492H10.7202C5.96017 3.54492 4.50684 4.99826 4.50684 9.75826V15.2783V15.9583Z" fill="#3366FF"/>
</svg>
