<svg width="44" height="133" viewBox="0 0 44 133" fill="none" xmlns="http://www.w3.org/2000/svg">
<rect width="5.63636" height="5.63636" rx="2" transform="matrix(1 0 0 -1 14.0908 62)" fill="#FCC498"/>
<rect width="5.63636" height="5.63636" rx="2" transform="matrix(1 0 0 -1 14.0908 33.8184)" fill="#FCC498"/>
<rect width="5.63636" height="5.63636" rx="2" transform="matrix(1 0 0 -1 14.0908 47.9092)" fill="#FCC498"/>
<rect width="5.63636" height="5.63636" rx="2" transform="matrix(1 0 0 -1 14.0908 19.7275)" fill="#FCC498"/>
<rect width="5.63636" height="5.63636" rx="2" transform="matrix(1 0 0 -1 14.0908 5.63623)" fill="#FCC498"/>
<rect x="42.2725" y="70.4546" width="5.63636" height="5.63636" rx="2" fill="#FCC498"/>
<rect x="42.2725" y="98.6362" width="5.63636" height="5.63636" rx="2" fill="#FCC498"/>
<rect x="42.2725" y="84.5454" width="5.63636" height="5.63636" rx="2" fill="#FCC498"/>
<rect x="42.2725" y="112.728" width="5.63636" height="5.63636" rx="2" fill="#FCC498"/>
<rect x="42.2725" y="126.818" width="5.63636" height="5.63636" rx="2" fill="#FCC498"/>
<rect width="5.63636" height="5.63636" rx="2" transform="matrix(1 0 0 -1 0 62)" fill="#FCC498"/>
<rect width="5.63636" height="5.63636" rx="2" transform="matrix(1 0 0 -1 0 33.8184)" fill="#FCC498"/>
<rect width="5.63636" height="5.63636" rx="2" transform="matrix(1 0 0 -1 0 47.9092)" fill="#FCC498"/>
<rect width="5.63636" height="5.63636" rx="2" transform="matrix(1 0 0 -1 0 19.7275)" fill="#FCC498"/>
<rect width="5.63636" height="5.63636" rx="2" transform="matrix(1 0 0 -1 0 5.63623)" fill="#FCC498"/>
<rect x="28.1816" width="5.63636" height="5.63636" rx="2" fill="#0DB760"/>
<rect x="28.1816" y="28.1816" width="5.63636" height="5.63636" rx="2" fill="#0DB760"/>
<rect x="28.1816" y="14.0908" width="5.63636" height="5.63636" rx="2" fill="#0DB760"/>
<rect x="28.1816" y="42.2729" width="5.63636" height="5.63636" rx="2" fill="#0DB760"/>
<rect x="28.1816" y="56.3638" width="5.63636" height="5.63636" rx="2" fill="#0DB760"/>
<rect width="5.63636" height="5.63636" rx="2" transform="matrix(1 0 0 -1 14.0908 132.455)" fill="#0DB760"/>
<rect width="5.63636" height="5.63636" rx="2" transform="matrix(1 0 0 -1 14.0908 104.273)" fill="#0DB760"/>
<rect width="5.63636" height="5.63636" rx="2" transform="matrix(1 0 0 -1 14.0908 118.364)" fill="#0DB760"/>
<rect width="5.63636" height="5.63636" rx="2" transform="matrix(1 0 0 -1 14.0908 90.1816)" fill="#0DB760"/>
<rect width="5.63636" height="5.63636" rx="2" transform="matrix(1 0 0 -1 14.0908 76.0908)" fill="#0DB760"/>
<rect x="42.2725" width="5.63636" height="5.63636" rx="2" fill="#0DB760"/>
<rect x="42.2725" y="28.1816" width="5.63636" height="5.63636" rx="2" fill="#0DB760"/>
<rect x="42.2725" y="14.0908" width="5.63636" height="5.63636" rx="2" fill="#0DB760"/>
<rect x="42.2725" y="42.2729" width="5.63636" height="5.63636" rx="2" fill="#0DB760"/>
<rect x="42.2725" y="56.3638" width="5.63636" height="5.63636" rx="2" fill="#0DB760"/>
<rect width="5.63636" height="5.63636" rx="2" transform="matrix(1 0 0 -1 0 132.455)" fill="#0DB760"/>
<rect width="5.63636" height="5.63636" rx="2" transform="matrix(1 0 0 -1 0 104.273)" fill="#0DB760"/>
<rect width="5.63636" height="5.63636" rx="2" transform="matrix(1 0 0 -1 0 118.364)" fill="#0DB760"/>
<rect width="5.63636" height="5.63636" rx="2" transform="matrix(1 0 0 -1 0 90.1816)" fill="#0DB760"/>
<rect width="5.63636" height="5.63636" rx="2" transform="matrix(1 0 0 -1 0 76.0908)" fill="#0DB760"/>
<rect x="28.1816" y="70.4546" width="5.63636" height="5.63636" rx="2" fill="#0DB760"/>
<rect x="28.1816" y="98.6362" width="5.63636" height="5.63636" rx="2" fill="#0DB760"/>
<rect x="28.1816" y="84.5454" width="5.63636" height="5.63636" rx="2" fill="#0DB760"/>
<rect x="28.1816" y="112.728" width="5.63636" height="5.63636" rx="2" fill="#0DB760"/>
<rect x="28.1816" y="126.818" width="5.63636" height="5.63636" rx="2" fill="#0DB760"/>
</svg>
