<svg width="433" height="472" viewBox="0 0 433 472" fill="none" xmlns="http://www.w3.org/2000/svg">
<path d="M418.683 182.764C414.002 119.79 411.662 88.3023 400.769 67.9305C369.58 9.59983 278.899 -4.27356 221.628 1.04654C144.955 8.16698 57.2417 56.267 18.6318 149.136C-16.4361 233.487 -0.266118 328.968 52.5736 391.427C149.437 505.924 349.245 485.481 398.055 410.351C417.533 380.367 418.938 332.476 421.001 262.126C421.993 228.262 420.057 201.275 418.683 182.764Z" fill="#F4F7FA"/>
<path d="M381.941 38.5285C376.984 34.0529 369.464 31.6154 363.108 31.1231C318.05 27.6388 311.474 130.418 318.381 153.388C325.287 176.357 320.812 183.899 285.326 195.917C249.839 207.934 266.863 231.072 271.189 244.603C275.514 258.134 284.079 269.565 258.21 283.01C232.341 296.456 241.331 304.786 241.331 304.786C241.331 304.786 289.038 358.04 286.402 340.99C283.767 323.941 288.542 298.197 331.315 296.24C349.738 295.397 377.951 285.807 384.198 264.279C385.653 259.266 386.665 251.609 385.559 246.42C384.023 239.222 379.695 233.552 377.291 226.777C371.69 210.99 385.739 199.43 393.824 188.877C398.046 183.368 402.265 177.719 405.496 171.438C412.208 158.398 409.695 144.413 402.387 132.392C398.882 126.629 394.013 120.513 392.483 113.637C390.841 106.252 392.273 96.1612 392.663 88.5637C392.968 82.6048 393.489 76.6694 393.182 70.6952C392.613 59.5864 390.228 46.0113 381.941 38.5285Z" fill="url(#paint0_linear_326_3)"/>
<g opacity="0.8">
<g opacity="0.8">
<path opacity="0.8" d="M237.58 334.676C237.271 334.797 236.92 334.654 236.764 334.328C236.594 333.973 236.72 333.533 237.045 333.347C237.246 333.233 257.33 321.704 279.735 302.716C300.38 285.22 327.275 257.634 338.163 225.563C347.259 198.779 355.552 154.498 360.92 104.079C365.733 58.8664 366.493 25.4287 364.448 19.2219C364.323 18.8443 364.504 18.4279 364.85 18.2914C365.196 18.1548 365.577 18.352 365.702 18.7296C368.095 25.9917 366.577 63.5544 362.245 104.247C356.867 154.778 348.545 199.18 339.415 226.069C328.413 258.468 301.324 286.267 280.535 303.881C258.038 322.943 237.866 334.521 237.665 334.635C237.636 334.65 237.608 334.664 237.58 334.676Z" fill="white"/>
</g>
<g opacity="0.8">
<path opacity="0.8" d="M360.847 112.843C360.502 112.978 360.152 112.874 360.025 112.498C359.858 112 343.061 62.685 321.401 51.5509C321.068 51.3807 320.933 50.9693 321.089 50.6052C321.247 50.2411 321.647 50.0978 321.979 50.2681C344.135 61.6568 360.583 109.937 361.273 111.992C361.4 112.37 361.196 112.707 360.85 112.842C360.848 112.843 360.847 112.843 360.847 112.843Z" fill="white"/>
</g>
<g opacity="0.8">
<path opacity="0.8" d="M352.654 170.034C352.398 170.135 352.098 170.055 351.914 169.811C351.681 169.501 351.721 169.042 352.005 168.788C352.129 168.677 364.496 157.606 379.755 148.317C400.372 135.765 416.172 132.26 426.717 137.902C427.047 138.079 427.183 138.514 427.021 138.875C426.859 139.236 426.46 139.384 426.13 139.207C401.869 126.227 353.339 169.471 352.852 169.909C352.792 169.964 352.724 170.007 352.654 170.034Z" fill="white"/>
</g>
<g opacity="0.8">
<path opacity="0.8" d="M298.814 286.933C298.746 286.96 298.675 286.974 298.599 286.975C298.232 286.982 297.929 286.662 297.923 286.259C297.92 286.048 297.577 264.889 293.519 242.594C289.798 222.153 282.114 196.549 266.642 190.649C266.295 190.516 266.111 190.101 266.233 189.723C266.354 189.344 266.735 189.143 267.081 189.277C279.982 194.195 289.317 212.045 294.829 242.331C298.908 264.753 299.251 286.025 299.254 286.237C299.26 286.557 299.075 286.83 298.814 286.933Z" fill="white"/>
</g>
<g opacity="0.8">
<path opacity="0.8" d="M326.345 252.748C326.075 252.854 325.763 252.76 325.584 252.495C325.365 252.172 325.428 251.717 325.723 251.479C327.869 249.748 378.479 209.144 398.216 213.021C398.579 213.092 398.818 213.471 398.754 213.866C398.689 214.262 398.343 214.525 397.98 214.452C378.802 210.685 327.036 252.227 326.515 252.647C326.463 252.693 326.404 252.725 326.345 252.748Z" fill="white"/>
</g>
</g>
<path d="M421.486 189.911C418.209 183.87 411.888 178.799 406.06 175.989C364.739 156.072 326.684 250.361 326.06 274.525C325.436 298.69 318.886 304.135 281.769 302.34C244.649 300.544 253.494 328.605 253.369 342.935C253.244 357.265 257.759 371.184 229.247 374.284C200.735 377.384 206.611 388.542 206.611 388.542C206.611 388.542 234.992 456.27 237.799 439.253C240.605 422.236 253.08 399.774 293.936 413.728C311.534 419.738 341.056 421.132 353.61 403.181C356.534 399 359.86 392.169 360.427 386.878C361.213 379.538 358.899 372.603 358.737 365.341C358.36 348.417 375.166 342.726 386.045 335.782C391.725 332.158 397.447 328.399 402.436 323.682C412.795 313.89 414.768 299.803 411.618 285.793C410.107 279.075 407.421 271.521 408.115 264.487C408.859 256.932 413.336 247.964 416.058 240.958C418.192 235.464 420.523 230.07 422.086 224.335C424.998 213.666 426.965 200.012 421.486 189.911Z" fill="url(#paint1_linear_326_3)"/>
<g opacity="0.8">
<g opacity="0.8">
<path opacity="0.8" d="M193.812 415.28C193.485 415.28 193.199 415.015 193.153 414.651C193.103 414.253 193.358 413.886 193.723 413.832C193.947 413.798 216.42 410.366 243.391 400.771C268.242 391.931 302.105 375.902 322.296 349.745C339.16 327.898 360.694 289.293 381.378 243.83C399.925 203.063 411.009 171.877 411.009 165.281C411.009 164.88 411.307 164.554 411.674 164.554C412.042 164.554 412.34 164.88 412.34 165.281C412.34 172.998 399.264 207.784 382.571 244.477C361.841 290.04 340.243 328.751 323.314 350.682C302.916 377.107 268.805 393.263 243.78 402.162C216.7 411.792 194.127 415.238 193.902 415.272C193.874 415.278 193.843 415.28 193.812 415.28Z" fill="white"/>
</g>
<g opacity="0.8">
<path opacity="0.8" d="M378.593 252.201C378.227 252.201 377.929 251.898 377.927 251.498C377.924 250.969 377.41 198.322 360.48 179.847C360.219 179.564 360.219 179.107 360.48 178.824C360.739 178.541 361.161 178.542 361.422 178.826C378.74 197.724 379.247 249.3 379.261 251.488C379.264 251.889 378.967 252.201 378.598 252.201C378.595 252.201 378.593 252.201 378.593 252.201Z" fill="white"/>
</g>
<g opacity="0.8">
<path opacity="0.8" d="M353.153 302.845C352.879 302.845 352.623 302.659 352.525 302.363C352.402 301.985 352.581 301.569 352.929 301.432C353.078 301.373 368.149 295.522 385.389 292.415C408.682 288.216 424.637 290.755 432.811 299.957C433.068 300.245 433.06 300.706 432.796 300.985C432.532 301.265 432.11 301.257 431.854 300.968C413.048 279.796 353.973 302.568 353.378 302.801C353.302 302.831 353.227 302.845 353.153 302.845Z" fill="white"/>
</g>
<g opacity="0.8">
<path opacity="0.8" d="M266.24 392.967C266.169 392.967 266.096 392.953 266.024 392.928C265.676 392.798 265.489 392.385 265.61 392.004C265.672 391.803 271.911 371.767 275.005 349.288C277.841 328.679 278.55 301.748 265.82 290.482C265.534 290.229 265.491 289.771 265.723 289.459C265.954 289.147 266.374 289.098 266.66 289.353C277.275 298.746 280.526 318.991 276.319 349.522C273.207 372.128 266.934 392.272 266.87 392.474C266.776 392.776 266.517 392.967 266.24 392.967Z" fill="white"/>
</g>
<g opacity="0.8">
<path opacity="0.8" d="M302.746 370.965C302.458 370.965 302.194 370.761 302.108 370.447C302.001 370.063 302.202 369.657 302.554 369.542C305.109 368.706 365.325 349.185 382.695 360.122C383.013 360.323 383.123 360.768 382.939 361.115C382.755 361.462 382.347 361.582 382.029 361.381C365.15 350.755 303.557 370.732 302.937 370.934C302.874 370.955 302.809 370.965 302.746 370.965Z" fill="white"/>
</g>
</g>
<path d="M282.975 20.053L282.5 23.7717C280.919 23.8509 279.365 24.0734 277.853 24.4443L276.565 20.9751C276.214 20.0294 275.221 19.5793 274.348 19.9721L268.885 22.4281C268.01 22.8209 267.584 23.9099 267.933 24.8573L269.228 28.3703C267.904 29.2907 266.653 30.3324 265.488 31.4855L262.744 29.1626C262.003 28.5355 260.928 28.6906 260.342 29.5098L256.672 34.6344C256.084 35.4553 256.209 36.6319 256.95 37.2607L259.704 39.5971C258.971 41.1008 258.354 42.6887 257.857 44.3458L254.361 43.8451C253.422 43.7102 252.548 44.4368 252.409 45.4684L251.53 51.9315C251.389 52.9665 252.038 53.9172 252.979 54.0521L256.485 54.5544C256.527 56.2991 256.702 58.0152 257.012 59.6857L253.722 61.1826C252.835 61.5855 252.4 62.6998 252.749 63.6691L254.941 69.7477C255.291 70.7221 256.297 71.1823 257.187 70.776L260.478 69.2724C261.306 70.7423 262.25 72.128 263.297 73.4158L261.104 76.5243C260.511 77.3655 260.637 78.5691 261.388 79.213L266.09 83.2385C266.843 83.8824 267.935 83.7206 268.526 82.876L270.693 79.7878C272.078 80.5919 273.542 81.2611 275.07 81.7955L274.577 85.649C274.442 86.7043 275.102 87.6702 276.051 87.8051L281.987 88.6547C282.937 88.7912 283.813 88.0444 283.946 86.9892L284.424 83.1643C286.039 83.0884 287.625 82.8609 289.168 82.4816L290.47 86.0148C290.832 86.9959 291.844 87.4595 292.73 87.0499L298.266 84.4893C299.152 84.0796 299.573 82.9553 299.21 81.9776L297.908 78.4696C299.26 77.5172 300.533 76.4366 301.713 75.2415L304.419 77.5374C305.176 78.1797 306.26 78.0178 306.841 77.1767L310.467 71.9307C311.046 71.0929 310.902 69.8978 310.147 69.2589L307.465 66.9899C308.196 65.4441 308.803 63.8107 309.285 62.1098L312.637 62.5902C313.578 62.7251 314.44 61.9918 314.562 60.9534L315.323 54.4735C315.445 53.4402 314.782 52.4928 313.843 52.3579L310.501 51.8792C310.431 50.1126 310.227 48.3797 309.884 46.6956L312.984 45.2796C313.856 44.8818 314.268 43.7827 313.907 42.8252L311.642 36.8511C311.281 35.897 310.283 35.4452 309.412 35.8413L306.293 37.2607C305.443 35.8059 304.482 34.4338 303.415 33.1644L305.476 30.2296C306.049 29.412 305.908 28.2439 305.164 27.6185L300.506 23.7127C299.762 23.0889 298.694 23.2423 298.12 24.0565L296.047 26.9947C294.672 26.2159 293.22 25.5686 291.705 25.0562L292.166 21.3661C292.293 20.3514 291.643 19.4191 290.711 19.286L284.892 18.4532C283.966 18.3234 283.105 19.0365 282.975 20.053ZM262.46 50.1749C264.142 37.404 274.883 28.4512 286.46 30.1082C298.038 31.7653 306.169 43.4203 304.614 56.2081C303.049 69.0751 292.285 78.2033 280.581 76.5293C268.877 74.8537 260.769 63.0234 262.46 50.1749Z" fill="#D8DEE8"/>
<path d="M193.751 18.0365L193.015 23.7864C190.573 23.9078 188.17 24.2517 185.831 24.8248L183.84 19.4609C183.296 17.9977 181.762 17.3032 180.414 17.91L171.966 21.708C170.614 22.3165 169.954 23.9971 170.495 25.4654L172.497 30.8968C170.45 32.3195 168.515 33.9294 166.715 35.7145L162.467 32.1223C161.323 31.153 159.659 31.394 158.754 32.6583L153.079 40.5812C152.169 41.8505 152.362 43.6694 153.508 44.642L157.767 48.2562C156.633 50.5808 155.678 53.0369 154.909 55.5975L149.504 54.8237C148.054 54.6164 146.702 55.7391 146.484 57.3338L145.126 67.3283C144.909 68.9298 145.913 70.398 147.368 70.6054L152.788 71.3808C152.853 74.0779 153.122 76.7329 153.604 79.3154L148.517 81.6299C147.145 82.2536 146.472 83.9747 147.012 85.475L150.402 94.8728C150.944 96.3782 152.499 97.0912 153.874 96.4625L158.964 94.1379C160.243 96.4102 161.703 98.5527 163.323 100.544L159.932 105.35C159.015 106.651 159.211 108.512 160.373 109.507L167.644 115.73C168.807 116.726 170.495 116.475 171.411 115.17L174.762 110.397C176.901 111.641 179.167 112.676 181.529 113.502L180.766 119.461C180.557 121.092 181.577 122.586 183.046 122.795L192.224 124.108C193.692 124.319 195.048 123.164 195.252 121.532L195.994 115.619C198.49 115.503 200.943 115.15 203.328 114.564L205.341 120.027C205.9 121.544 207.465 122.261 208.835 121.627L217.395 117.669C218.762 117.037 219.416 115.297 218.854 113.783L216.839 108.359C218.929 106.887 220.897 105.215 222.723 103.367L226.906 106.917C228.076 107.91 229.752 107.659 230.651 106.361L236.256 98.251C237.151 96.9564 236.93 95.1072 235.762 94.1193L231.616 90.6131C232.747 88.221 233.684 85.6958 234.429 83.0678L239.613 83.8095C241.068 84.0186 242.401 82.8841 242.59 81.2793L243.767 71.2594C243.955 69.6597 242.929 68.1965 241.479 67.9891L236.31 67.2491C236.204 64.5183 235.889 61.838 235.357 59.2352L240.152 57.0455C241.501 56.4302 242.139 54.731 241.576 53.251L238.074 44.0133C237.515 42.5383 235.972 41.8404 234.627 42.4523L229.806 44.6454C228.493 42.395 227.005 40.2744 225.357 38.3139L228.542 33.776C229.429 32.5134 229.212 30.7063 228.059 29.7387L220.857 23.7005C219.706 22.7362 218.055 22.9739 217.167 24.2331L213.96 28.7761C211.833 27.5725 209.588 26.5712 207.247 25.7773L207.962 20.0711C208.158 18.5017 207.151 17.0621 205.713 16.8565L196.715 15.5686C195.28 15.3629 193.951 16.4671 193.751 18.0365ZM162.03 64.611C164.63 44.8646 181.237 31.0215 199.137 33.5838C217.037 36.1461 229.609 54.1663 227.206 73.9397C224.787 93.8328 208.146 107.949 190.049 105.358C171.952 102.769 159.413 84.4754 162.03 64.611Z" fill="#D8DEE8"/>
<path d="M185.141 73.716L145.789 430.672C145.198 436.024 148.578 440.822 153.314 441.334L317.226 460.973C327.267 461.654 332.764 456.055 333.385 450.364L374.702 70.8604C375.318 65.2014 370.392 60.0752 360.308 60.0752L194.906 63.8765C190.115 63.9658 185.728 68.3925 185.141 73.716Z" fill="url(#paint2_linear_326_3)"/>
<path d="M177.763 73.1027L138.194 431.844C137.601 437.223 140.993 442.046 145.745 442.562L315.675 461.025C321.002 461.603 325.885 457.398 326.508 451.678L368.056 70.2134C368.675 64.5241 364.762 59.9524 359.376 60.0519L187.562 63.216C182.757 63.3019 178.354 67.7522 177.763 73.1027Z" fill="url(#paint3_linear_326_3)"/>
<path d="M180.989 92.8889L144.313 425.513C143.758 430.538 146.936 435.036 151.383 435.508L311.197 452.461C316.149 452.987 320.687 449.061 321.268 443.736L359.665 91.3515C360.243 86.055 356.609 81.7683 351.606 81.8273L190.152 83.7035C185.658 83.754 181.54 87.8891 180.989 92.8889Z" fill="#D8DEE8"/>
<path d="M266.689 72.8546C266.479 74.7645 267.735 76.2934 269.496 76.2681C271.258 76.2445 272.859 74.6734 273.069 72.7602C273.279 70.8469 272.018 69.3179 270.256 69.3466C268.493 69.3752 266.897 70.9463 266.689 72.8546Z" fill="url(#paint4_linear_326_3)"/>
<path d="M208.618 316.168C241.335 250.158 290.211 230.398 304.926 162.366C312.879 125.592 307.461 90.3944 298.333 61.1743L359.378 60.0499C364.765 59.9505 368.677 64.5238 368.058 70.2114L326.51 451.676C325.887 457.397 321.005 461.603 315.677 461.023L182.095 446.509C181.105 387.361 194.033 345.592 208.618 316.168Z" fill="white"/>
<path d="M16.4307 110.958C16.4307 75.8822 44.4686 47.4527 78.1154 47.4561C110.767 47.4594 136.536 74.3937 136.536 107.614C136.536 140.834 110.767 169.203 78.1154 171.025C44.4671 172.903 16.4307 146.035 16.4307 110.958Z" fill="url(#paint5_linear_326_3)"/>
<path d="M20.0586 108.162C20.0586 73.0853 47.2856 44.6558 79.9576 44.6592C111.664 44.6626 136.688 71.5968 136.688 104.817C136.688 138.037 111.664 166.406 79.9576 168.229C47.284 170.106 20.0586 143.236 20.0586 108.162Z" fill="url(#paint6_linear_326_3)"/>
<g opacity="0.5">
<path opacity="0.5" d="M29.3779 107.894C29.3779 78.4239 52.2519 54.5374 79.7029 54.5425C106.341 54.5459 127.366 77.1748 127.366 105.085C127.366 132.995 106.343 156.83 79.7029 158.36C52.2519 159.938 29.3779 137.363 29.3779 107.894Z" fill="white"/>
</g>
<path opacity="0.5" d="M77.815 59.0703C104.453 59.0737 125.478 81.7027 125.478 109.613C125.478 116.25 124.278 122.65 122.108 128.581C125.469 121.44 127.369 113.448 127.369 105.085C127.369 77.1748 106.346 54.5459 79.7057 54.5425C58.534 54.5408 40.0964 68.7547 32.7637 88.7742C41.0665 71.1737 58.2776 59.0686 77.815 59.0703Z" fill="white"/>
<path d="M56.9434 100.681V126.401C56.9434 133.837 62.6758 139.703 69.7258 139.503L87.2072 139.005C94.1723 138.806 99.8012 132.682 99.8012 125.324V99.875L56.9434 100.681ZM73.0423 127.271L76.2908 116.528C74.899 115.744 73.9567 114.2 73.9567 112.402C73.9567 109.762 75.9865 107.579 78.4858 107.528C80.9821 107.476 83.0041 109.57 83.0041 112.204C83.0041 114 82.0649 115.582 80.6778 116.429L83.9139 126.995L73.0423 127.271Z" fill="white"/>
<path d="M94.8321 97.6448C92.9769 97.6785 91.4724 96.1125 91.4724 94.1452C91.4724 86.5848 85.6566 80.5163 78.4845 80.6174C71.2877 80.7186 65.4132 86.9911 65.4132 94.5987C65.4132 96.5777 63.8886 98.2095 62.0056 98.2449C60.1211 98.2786 58.5918 96.7008 58.5918 94.7184C58.5918 83.1392 67.5403 73.6082 78.4861 73.4751C89.3731 73.3419 98.1857 82.5627 98.1857 94.0306C98.1857 95.9928 96.6858 97.6111 94.8321 97.6448Z" fill="white"/>
<path d="M135.322 244.347C135.322 244.347 134.133 239.482 134.976 238.238C135.818 236.994 140.97 232.021 140.475 233.643C139.979 235.264 139.236 236.345 139.236 236.345C139.236 236.345 142.011 237.751 140.227 239.858C138.444 241.967 137.848 242.452 137.749 244.345C137.651 246.238 136.512 246.887 135.322 244.347Z" fill="url(#paint7_linear_326_3)"/>
<path d="M85.8373 454.347C85.8373 454.347 85.207 458.555 85.2873 460.052C85.3677 461.548 100.595 462.314 100.748 461.193C100.901 460.072 98.232 458.287 96.3521 457.658C94.4722 457.027 88.9699 455.348 88.9699 455.348L85.8373 454.347Z" fill="url(#paint8_linear_326_3)"/>
<path d="M89.5328 450.154L89.0478 455.386C89.0478 455.386 87.2791 456.662 85.7205 455.678L84.9404 449.983L89.5328 450.154Z" fill="url(#paint9_linear_326_3)"/>
<path d="M58.6673 461.168C58.6673 461.168 58.0371 465.376 58.1174 466.872C58.1978 468.369 73.4255 469.135 73.5784 468.014C73.7329 466.893 71.0621 465.107 69.1822 464.479C67.3022 463.85 61.8 462.169 61.8 462.169L58.6673 461.168Z" fill="url(#paint10_linear_326_3)"/>
<path d="M62.3649 456.974L61.8798 462.206C61.8798 462.206 60.1112 463.482 58.5525 462.498L57.7725 456.804L62.3649 456.974Z" fill="url(#paint11_linear_326_3)"/>
<path d="M86.7706 313.567C88.53 317.461 90.291 321.355 92.0504 325.249C93.4654 347.472 94.1698 371.638 93.7172 397.482C93.3804 416.709 92.4397 434.923 91.0865 452.019C88.6999 451.9 86.3134 451.78 83.9268 451.66C80.4759 444.186 76.4025 432.863 76.0272 418.885C75.6364 404.305 79.6866 402.368 79.4302 388.409C79.0965 370.315 72.1438 365.487 68.4396 343.723C67.0231 335.399 66.07 324.527 67.2023 311.338C73.7256 312.082 80.2473 312.825 86.7706 313.567Z" fill="url(#paint12_linear_326_3)"/>
<path opacity="0.3" d="M67.203 311.338C70.7249 311.74 74.2468 312.141 77.7703 312.542C84.1113 324.583 85.8815 337.115 84.7678 342.659C83.1938 350.503 79.0292 353.014 79.2594 360.888C79.4865 368.68 83.6927 370.701 86.3604 379.883C88.2079 386.241 87.7198 392.087 86.6694 403.52C84.5531 426.548 79.4571 433.591 83.7251 441.141C84.9377 443.287 87.1235 445.841 91.4054 447.792C91.3004 449.204 91.1969 450.62 91.0872 452.018C88.7006 451.9 86.3141 451.778 83.9275 451.66C80.4766 444.186 76.4032 432.863 76.0279 418.885C75.6371 404.305 79.6873 402.368 79.4309 388.409C79.0972 370.315 72.1445 365.488 68.4403 343.724C67.0238 335.4 66.0692 324.529 67.203 311.338Z" fill="url(#paint13_linear_326_3)"/>
<path d="M77.2996 320.578C73.9955 340.24 71.0775 361.283 68.8007 383.6C66.0511 410.546 64.5836 435.95 64.0074 459.535C61.3876 459.616 58.7693 459.696 56.1495 459.777C45.8278 437.494 45.1976 422.387 46.6851 412.551C47.2582 408.761 48.8168 401.329 49.1721 390.22C49.4192 382.477 48.9666 376.584 48.4013 369.501C47.1624 353.97 45.6579 350.58 45.4416 338.701C45.2377 327.552 45.196 321.912 48.1124 318.619C55.7958 309.943 75.7843 319.809 77.2996 320.578Z" fill="url(#paint14_linear_326_3)"/>
<path d="M133.953 243.597C135.695 243.463 137.436 243.332 139.178 243.199C143.287 261.322 140.34 278.9 131.065 285.365C116.575 295.466 89.6427 276.436 83.8068 255.713C81.2456 246.617 81.828 233.492 86.9487 230.942C88.3698 230.234 90.5757 230.124 95.3534 233.051C109.622 241.793 109.997 258.316 117.251 259.715C120.473 260.339 125.682 258.095 133.953 243.597Z" fill="url(#paint15_linear_326_3)"/>
<path d="M94.055 329.236C96.5651 324.691 93.4124 320.308 92.6956 311.699C91.8831 301.941 95.3278 300.316 98.7339 284.145C101 273.39 103.173 263.065 100.578 250.978C99.3348 245.186 97.2247 235.362 89.7731 230.617C85.9283 228.167 80.6778 228.414 70.336 229.004C57.5459 229.733 51.1523 230.098 46.3823 232.839C45.6841 233.24 31.1762 241.852 30.1768 255.891C29.1604 270.179 43.418 272.099 45.3195 291.152C46.1738 299.706 44.6522 312.861 43.6652 321.392C42.7182 329.585 42.0648 331.682 43.5478 334.163C47.1191 340.142 58.051 338.438 79.9148 335.031C88.491 333.693 92.1813 332.628 94.055 329.236Z" fill="url(#paint16_linear_326_3)"/>
<path d="M60.7878 288.086C59.8625 291.8 56.5383 294.573 54.2244 303.606C53.7254 305.557 50.1649 319.445 54.782 322.864C57.4482 324.838 59.8424 321.097 66.3148 320.608C77.5293 319.762 82.8725 330.048 90.199 327.238C91.4703 326.75 93.1478 325.711 94.8238 323.324C95.1575 325.475 95.1003 327.345 94.0561 329.238C92.1839 332.629 88.4921 333.695 79.9159 335.031C58.0521 338.438 47.1202 340.143 43.5489 334.163C42.0675 331.684 42.7194 329.585 43.6663 321.392C44.6534 312.859 46.1749 299.704 45.3207 291.152C43.4191 272.099 29.16 270.179 30.1779 255.891C30.4498 252.071 31.7365 248.671 33.4589 245.709C51.5458 253.696 63.6934 276.416 60.7878 288.086Z" fill="url(#paint17_linear_326_3)"/>
<path d="M37.9443 316.19L41.5636 318.712C42.2139 317.893 43.7184 316.241 46.0664 315.677C48.7125 315.042 51.7509 315.954 51.8204 316.874C51.8776 317.613 50.027 318.358 49.7413 318.472C47.4319 319.403 45.7188 318.629 44.7858 319.642C44.4553 320 44.0444 320.667 43.0975 321.284C42.8488 321.446 42.5893 321.589 42.4518 321.648C40.9102 322.302 38.2672 319.374 38.0401 319.118L37.9443 316.19Z" fill="url(#paint18_linear_326_3)"/>
<path d="M48.6348 264.394C51.2531 257.552 53.0666 247.075 48.9314 231.518C21.6859 243.234 7.79123 271.008 13.2162 293.023C17.6882 311.173 33.9601 320.013 37.5902 321.874C38.4351 319.775 39.2801 317.678 40.1235 315.581C35.9172 310.47 31.1765 302.911 31.8469 294.286C32.7769 282.327 43.3349 278.246 48.6348 264.394Z" fill="url(#paint19_linear_326_3)"/>
<path d="M69.6655 214.927C69.6655 214.927 69.4508 220.128 67.9709 224.023C66.6332 227.543 59.6017 229.756 58.176 230.542C56.7502 231.328 60.8468 233.625 64.9603 234.075C69.0739 234.527 80.8198 233.507 82.9376 231.806C85.0554 230.105 81.2353 230.233 78.3004 229.057C75.3639 227.88 73.6663 221.614 74.1853 218.771C74.7043 215.925 69.6655 214.927 69.6655 214.927Z" fill="url(#paint20_linear_326_3)"/>
<path d="M76.1714 213.041C78.3062 210.752 78.6043 210.486 78.836 209.695C79.769 206.521 77.5122 202.172 74.5526 201.101C74.3981 201.046 72.4131 200.353 71.6562 201.292C71.0121 202.089 71.959 203.192 71.5095 204.731C71.0878 206.17 69.9447 206.278 67.8238 208.166C66.0768 209.72 64.9924 210.688 64.7421 212.048C64.2262 214.852 67.3357 218.914 70.0884 218.805C71.0785 218.764 71.3488 218.213 76.1714 213.041Z" fill="url(#paint21_linear_326_3)"/>
<path d="M70.3595 219.238C70.3595 219.238 72.6287 222.041 76.0842 221.114C79.1782 220.285 78.3889 212.534 76.1243 211.297C75.369 210.884 73.9957 210.917 72.9639 211.46C72.3537 211.78 72.1838 212.114 71.1782 212.617C70.2514 213.08 69.9563 213.016 69.7076 213.343C69.3956 213.751 69.2612 214.631 70.239 216.752C69.5346 216.207 68.7762 216.092 68.3112 216.453C68.2371 216.511 68.0486 216.713 67.9667 216.977C67.6717 217.937 68.5862 218.913 70.3595 219.238Z" fill="url(#paint22_linear_326_3)"/>
<path d="M329.138 114.294L329.936 118.999L313.496 119.041L170.827 119.41C167.157 119.42 163.781 122.731 163.278 126.805L129.22 375.2C128.714 379.311 134.577 385.587 138.226 385.894L201.52 391.202V391.118L296.198 399.044C296.2 399.044 296.201 399.044 296.203 399.044L296.432 399.149C300.474 399.489 304.183 396.288 304.708 391.946C304.708 391.944 304.708 391.964 304.71 391.963L336.605 126.758C337.124 122.456 333.203 114.282 329.138 114.294Z" fill="url(#paint23_linear_326_3)"/>
<path d="M301.482 386.778C300.96 391.122 297.252 394.368 293.21 394.03L134.84 380.76C131.193 380.455 128.655 376.874 129.162 372.763L160.123 121.727C160.625 117.652 164 114.342 167.667 114.33L326.931 113.851C330.995 113.839 333.877 117.317 333.361 121.619L301.482 386.778Z" fill="url(#paint24_linear_326_3)"/>
<path d="M303.586 248.722C303.326 250.873 301.485 252.478 299.474 252.397L160.09 246.846C158.251 246.773 156.956 245.12 157.209 243.065L159.95 220.899C160.203 218.846 161.882 217.457 163.723 217.513L303.229 221.741C305.243 221.801 306.669 223.354 306.411 225.503L303.586 248.722Z" fill="white"/>
<path d="M298.189 293.759C297.93 295.915 296.087 297.755 294.076 297.645L154.797 290.137C152.959 290.037 151.68 288.117 151.933 286.061L154.695 263.467C154.949 261.412 156.643 259.651 158.483 259.732L297.846 265.866C299.857 265.955 301.28 267.941 301.021 270.094L298.189 293.759Z" fill="white"/>
<path opacity="0.1" d="M306.422 225.414C306.092 225.298 305.736 225.234 305.358 225.222L165.849 220.996C164.01 220.938 162.329 222.331 162.079 224.379L159.334 246.544C159.328 246.602 159.323 246.656 159.318 246.713C157.903 246.278 156.994 244.815 157.207 243.062L159.952 220.896C160.202 218.848 161.883 217.454 163.722 217.513L303.231 221.739C305.21 221.803 306.629 223.307 306.422 225.414Z" fill="url(#paint25_linear_326_3)"/>
<path opacity="0.1" d="M301.05 269.594C300.715 269.449 300.353 269.362 299.97 269.345L160.61 263.209C158.77 263.128 157.073 264.893 156.822 266.948L154.056 289.543C154.04 289.688 154.029 289.828 154.029 289.973C152.614 289.474 151.715 287.814 151.929 286.06L154.695 263.465C154.945 261.41 156.642 259.645 158.483 259.726L297.843 265.862C299.704 265.95 301.054 267.644 301.05 269.594Z" fill="url(#paint26_linear_326_3)"/>
<path d="M261.147 330.264C261.558 326.864 259.355 323.732 256.224 323.535L184.125 319.017C181.139 318.83 178.381 321.574 177.975 324.885L175 349.358C174.594 352.674 176.665 355.846 179.65 356.069L251.712 361.45C254.841 361.684 257.724 358.8 258.136 355.394L261.147 330.264Z" fill="url(#paint27_linear_326_3)"/>
<path d="M266.592 165.379C265.642 173.203 261.959 180.264 256.723 185.458C251.08 191.059 243.647 194.468 235.917 194.304C228.226 194.143 221.752 190.476 217.595 184.75C213.761 179.472 211.883 172.439 212.824 164.747C214.781 148.745 228.254 135.808 243.038 135.847C257.963 135.883 268.566 149.104 266.592 165.379Z" fill="url(#paint28_linear_326_3)"/>
<path d="M252.215 156.487C251.362 163.496 245.434 169.113 238.997 169.029C232.587 168.945 228.098 163.235 228.946 156.277C229.795 149.32 235.664 143.708 242.077 143.74C248.519 143.772 253.068 149.478 252.215 156.487Z" fill="white"/>
<path d="M256.724 185.458C251.081 191.059 243.648 194.468 235.918 194.304C228.227 194.143 221.753 190.476 217.597 184.75C222.354 177.516 230.201 172.705 238.535 172.823C246.914 172.941 253.667 178.009 256.724 185.458Z" fill="white"/>
<path opacity="0.4" d="M333.36 121.618L301.482 386.777C300.96 391.119 297.016 394.347 292.976 394.008L197.857 386.038C193.339 380.99 189.618 374.931 186.962 367.661C185.659 364.096 184.704 360.249 184.069 356.203C182.304 345.007 182.988 332.279 185.563 319.787C187.543 310.17 190.648 300.676 194.623 292.109C197.802 285.26 201.54 278.998 205.715 273.735C208.721 269.947 211.973 266.267 215.402 262.658C219.537 258.302 223.932 254.051 228.466 249.838C239.03 240.015 250.342 230.412 260.815 220.271C284.98 196.876 304.586 170.736 299.868 133.438C299.717 132.263 298.245 123.267 296.363 113.941L326.695 113.85C330.757 113.838 333.878 117.318 333.36 121.618Z" fill="white"/>
<defs>
<linearGradient id="paint0_linear_326_3" x1="289.633" y1="340.449" x2="420.971" y2="15.4029" gradientUnits="userSpaceOnUse">
<stop offset="0.00359712" stop-color="#E38DDD"/>
<stop offset="1" stop-color="#0DB760"/>
</linearGradient>
<linearGradient id="paint1_linear_326_3" x1="206.111" y1="307.621" x2="424.953" y2="307.621" gradientUnits="userSpaceOnUse">
<stop stop-color="#F9F047"/>
<stop offset="1" stop-color="#F9F047" stop-opacity="0.19"/>
</linearGradient>
<linearGradient id="paint2_linear_326_3" x1="262.273" y1="251.321" x2="326.991" y2="257.79" gradientUnits="userSpaceOnUse">
<stop stop-color="#444B8C"/>
<stop offset="0.9964" stop-color="#26264F"/>
</linearGradient>
<linearGradient id="paint3_linear_326_3" x1="205.357" y1="73.629" x2="392.736" y2="658.186" gradientUnits="userSpaceOnUse">
<stop stop-color="#444B8C"/>
<stop offset="0.9964" stop-color="#26264F"/>
</linearGradient>
<linearGradient id="paint4_linear_326_3" x1="265.211" y1="59.0123" x2="483.765" y2="601.42" gradientUnits="userSpaceOnUse">
<stop stop-color="#FFC444"/>
<stop offset="0.9964" stop-color="#F36F56"/>
</linearGradient>
<linearGradient id="paint5_linear_326_3" x1="-1374.88" y1="1602.75" x2="-1236" y2="1482.75" gradientUnits="userSpaceOnUse">
<stop stop-color="#311944"/>
<stop offset="1" stop-color="#893976"/>
</linearGradient>
<linearGradient id="paint6_linear_326_3" x1="39.3479" y1="145.094" x2="150.273" y2="52.8526" gradientUnits="userSpaceOnUse">
<stop stop-color="#FCC498"/>
<stop offset="1" stop-color="#FCC498"/>
</linearGradient>
<linearGradient id="paint7_linear_326_3" x1="143.598" y1="233.697" x2="121.397" y2="254.404" gradientUnits="userSpaceOnUse">
<stop stop-color="#FFC444"/>
<stop offset="0.9964" stop-color="#F36F56"/>
</linearGradient>
<linearGradient id="paint8_linear_326_3" x1="93.057" y1="448.833" x2="93.2615" y2="398.588" gradientUnits="userSpaceOnUse">
<stop stop-color="#AA80F9"/>
<stop offset="0.9964" stop-color="#6165D7"/>
</linearGradient>
<linearGradient id="paint9_linear_326_3" x1="88.4962" y1="464.979" x2="85.8895" y2="439.058" gradientUnits="userSpaceOnUse">
<stop stop-color="#FFC444"/>
<stop offset="0.9964" stop-color="#F36F56"/>
</linearGradient>
<linearGradient id="paint10_linear_326_3" x1="65.9118" y1="448.723" x2="66.1164" y2="398.477" gradientUnits="userSpaceOnUse">
<stop stop-color="#AA80F9"/>
<stop offset="0.9964" stop-color="#6165D7"/>
</linearGradient>
<linearGradient id="paint11_linear_326_3" x1="60.9855" y1="467.745" x2="58.3788" y2="441.823" gradientUnits="userSpaceOnUse">
<stop stop-color="#FFC444"/>
<stop offset="0.9964" stop-color="#F36F56"/>
</linearGradient>
<linearGradient id="paint12_linear_326_3" x1="87.6638" y1="334.156" x2="67.7061" y2="427.655" gradientUnits="userSpaceOnUse">
<stop stop-color="#311944"/>
<stop offset="1" stop-color="#893976"/>
</linearGradient>
<linearGradient id="paint13_linear_326_3" x1="96.0852" y1="380.198" x2="70.7042" y2="382.062" gradientUnits="userSpaceOnUse">
<stop stop-color="#1A355E"/>
<stop offset="1" stop-color="#1A355E"/>
</linearGradient>
<linearGradient id="paint14_linear_326_3" x1="82.0616" y1="385.403" x2="43.531" y2="388.233" gradientUnits="userSpaceOnUse">
<stop stop-color="#1A355E"/>
<stop offset="1" stop-color="#1A355E"/>
</linearGradient>
<linearGradient id="paint15_linear_326_3" x1="112.465" y1="246.762" x2="78.7041" y2="445.448" gradientUnits="userSpaceOnUse">
<stop stop-color="#0DB760"/>
<stop offset="0.9964" stop-color="#0DB760"/>
</linearGradient>
<linearGradient id="paint16_linear_326_3" x1="51.8977" y1="465.835" x2="35.5122" y2="667.05" gradientUnits="userSpaceOnUse">
<stop stop-color="#0DB760"/>
<stop offset="0.9964" stop-color="#0DB760"/>
</linearGradient>
<linearGradient id="paint17_linear_326_3" x1="5.0698" y1="397.155" x2="91.4101" y2="261.632" gradientUnits="userSpaceOnUse">
<stop stop-color="#0DB760"/>
<stop offset="0.9964" stop-color="#0DB760"/>
</linearGradient>
<linearGradient id="paint18_linear_326_3" x1="32.0183" y1="298.904" x2="49.903" y2="321.043" gradientUnits="userSpaceOnUse">
<stop stop-color="#FFC444"/>
<stop offset="0.9964" stop-color="#F36F56"/>
</linearGradient>
<linearGradient id="paint19_linear_326_3" x1="18.2463" y1="463.094" x2="1.86075" y2="664.31" gradientUnits="userSpaceOnUse">
<stop stop-color="#0DB760"/>
<stop offset="0.9964" stop-color="#0DB760"/>
</linearGradient>
<linearGradient id="paint20_linear_326_3" x1="77.5473" y1="240.008" x2="60.4475" y2="220.512" gradientUnits="userSpaceOnUse">
<stop stop-color="#FFC444"/>
<stop offset="0.9964" stop-color="#F36F56"/>
</linearGradient>
<linearGradient id="paint21_linear_326_3" x1="65.8108" y1="232.311" x2="75.3982" y2="203.41" gradientUnits="userSpaceOnUse">
<stop stop-color="#444B8C"/>
<stop offset="0.9964" stop-color="#3E4177"/>
</linearGradient>
<linearGradient id="paint22_linear_326_3" x1="86.674" y1="222.063" x2="63.0375" y2="212.422" gradientUnits="userSpaceOnUse">
<stop stop-color="#FFC444"/>
<stop offset="0.9964" stop-color="#F36F56"/>
</linearGradient>
<linearGradient id="paint23_linear_326_3" x1="129.19" y1="256.735" x2="336.652" y2="256.735" gradientUnits="userSpaceOnUse">
<stop stop-color="#311944"/>
<stop offset="1" stop-color="#893976"/>
</linearGradient>
<linearGradient id="paint24_linear_326_3" x1="255.319" y1="702.022" x2="225.878" y2="234.717" gradientUnits="userSpaceOnUse">
<stop offset="0.003597" stop-color="#F36F56"/>
<stop offset="1" stop-color="#FFC444"/>
</linearGradient>
<linearGradient id="paint25_linear_326_3" x1="157.175" y1="232.114" x2="306.442" y2="232.114" gradientUnits="userSpaceOnUse">
<stop offset="0.003597" stop-color="#F36F56"/>
<stop offset="1" stop-color="#FFC444"/>
</linearGradient>
<linearGradient id="paint26_linear_326_3" x1="151.899" y1="274.849" x2="301.05" y2="274.849" gradientUnits="userSpaceOnUse">
<stop offset="0.003597" stop-color="#FCC498"/>
<stop offset="1" stop-color="#FCC498"/>
</linearGradient>
<linearGradient id="paint27_linear_326_3" x1="225.21" y1="290.628" x2="185.686" y2="520.302" gradientUnits="userSpaceOnUse">
<stop offset="0.003597" stop-color="#FBDFC3"/>
<stop offset="1" stop-color="#FBDFC3"/>
</linearGradient>
<linearGradient id="paint28_linear_326_3" x1="236.177" y1="50.3888" x2="244.656" y2="281.734" gradientUnits="userSpaceOnUse">
<stop offset="0.003597" stop-color="#F36F56" stop-opacity="0.86"/>
<stop offset="1" stop-color="#FFC444"/>
</linearGradient>
</defs>
</svg>
