<svg width="78" height="70" viewBox="0 0 78 70" fill="none" xmlns="http://www.w3.org/2000/svg">
<path d="M21.125 23.6543C18.2325 23.6543 15.8925 21.5543 15.8925 18.9585C15.8925 17.7131 16.4438 16.5187 17.4251 15.638C18.4063 14.7574 19.7373 14.2627 21.125 14.2627C24.0175 14.2627 26.3575 16.3627 26.3575 18.9585C26.3575 20.2039 25.8062 21.3983 24.8249 22.279C23.8437 23.1596 22.5127 23.6543 21.125 23.6543ZM21.125 5.8335C13 5.8335 6.5 11.6668 6.5 18.9585C6.5 28.7877 21.125 43.3418 21.125 43.3418C21.125 43.3418 35.75 28.7877 35.75 18.9585C35.75 11.6668 29.25 5.8335 21.125 5.8335ZM56.875 23.6543C55.4873 23.6543 54.1563 23.1596 53.1751 22.279C52.1938 21.3983 51.6425 20.2039 51.6425 18.9585C51.6425 18.3418 51.7778 17.7312 52.0408 17.1615C52.3038 16.5918 52.6892 16.0741 53.1751 15.638C53.6609 15.202 54.2378 14.8561 54.8726 14.6201C55.5074 14.3841 56.1879 14.2627 56.875 14.2627C57.5621 14.2627 58.2426 14.3841 58.8774 14.6201C59.5122 14.8561 60.0891 15.202 60.5749 15.638C61.0608 16.0741 61.4462 16.5918 61.7092 17.1615C61.9722 17.7312 62.1075 18.3418 62.1075 18.9585C62.1075 20.2039 61.5562 21.3983 60.5749 22.279C59.5937 23.1596 58.2627 23.6543 56.875 23.6543ZM56.875 5.8335C48.75 5.8335 42.25 11.6668 42.25 18.9585C42.25 28.7877 56.875 43.3418 56.875 43.3418C56.875 43.3418 71.5 28.7877 71.5 18.9585C71.5 11.6668 65 5.8335 56.875 5.8335ZM56.875 46.6668C52.7475 46.6668 49.075 49.0002 47.71 52.5002H30.29C29.4288 50.3172 27.6385 48.5297 25.3114 47.5292C22.9843 46.5287 20.3102 46.3969 17.875 47.1627C16.6646 47.5433 15.5497 48.1342 14.594 48.9018C13.6383 49.6693 12.8605 50.5983 12.3052 51.6358C11.7498 52.6733 11.4277 53.7988 11.3573 54.948C11.287 56.0972 11.4697 57.2477 11.895 58.3335C12.7678 60.5221 14.5702 62.3119 16.9085 63.3119C19.2468 64.312 21.931 64.4411 24.375 63.671C27.1375 62.796 29.25 60.8127 30.29 58.3335H47.7425C49.53 62.8835 55.12 65.2752 60.125 63.671C61.339 63.2943 62.4582 62.706 63.4181 61.94C64.378 61.1739 65.1598 60.2452 65.7185 59.2071C66.2772 58.1691 66.6018 57.0422 66.6737 55.8912C66.7456 54.7402 66.5634 53.5878 66.1375 52.5002C64.74 49.0002 61.035 46.6668 56.875 46.6668ZM56.875 59.7918C55.5821 59.7918 54.3421 59.3309 53.4279 58.5104C52.5136 57.6899 52 56.5771 52 55.4168C52 54.2565 52.5136 53.1437 53.4279 52.3232C54.3421 51.5028 55.5821 51.0418 56.875 51.0418C58.1679 51.0418 59.4079 51.5028 60.3221 52.3232C61.2364 53.1437 61.75 54.2565 61.75 55.4168C61.75 56.5771 61.2364 57.6899 60.3221 58.5104C59.4079 59.3309 58.1679 59.7918 56.875 59.7918Z" fill="#0047FF" fill-opacity="0.78"/>
</svg>
