<svg width="659" height="189" viewBox="0 0 659 189" fill="none" xmlns="http://www.w3.org/2000/svg">
<path opacity="0.25" d="M22.0098 150.249C20.2836 152.07 6.61733 149.49 0 147.973V189H659V21.8544C654.109 18.5155 642.6 11.8378 635.695 11.8378C627.064 11.8378 617.57 17.3014 614.549 17.3014C593.834 17.3014 597.286 0 575.276 0C553.266 0 542.909 17.3014 541.614 17.3014H515.72C500.616 17.3014 500.616 50.5383 483.785 50.5383C479.469 50.5383 472.995 44.1641 467.817 44.1641C453.575 44.1641 446.238 78.7669 435.881 78.7669C425.523 78.7669 430.702 72.3927 416.892 72.3927C403.082 72.3927 400.924 87.8729 389.272 87.8729C377.62 87.8729 379.777 81.4987 368.125 81.4987C356.473 81.4987 354.747 98.8002 342.663 98.8002C330.234 98.8002 331.874 68.295 313.316 68.2951C307.706 68.2951 297.78 95.6131 286.991 95.6131C280.949 95.6131 276.633 92.426 273.181 92.426C257.644 92.426 254.623 115.191 250.739 115.191C244.697 115.191 245.129 112.915 235.203 112.915C226.572 112.915 225.709 92.426 206.72 92.426C187.731 92.426 178.236 112.915 168.742 112.915C159.248 112.915 150.185 104.719 141.553 104.719C115.659 104.719 89.7655 137.956 77.2502 141.143C64.7348 144.33 56.9666 137.045 50.4931 137.956C44.0196 138.867 24.1676 147.973 22.0098 150.249Z" fill="url(#paint0_linear_362_99)"/>
<defs>
<linearGradient id="paint0_linear_362_99" x1="329.5" y1="-9.73391" x2="329.5" y2="155.742" gradientUnits="userSpaceOnUse">
<stop stop-color="#0A0F0C"/>
<stop offset="1" stop-color="#27C774"/>
</linearGradient>
</defs>
</svg>
