<svg width="84" height="90" viewBox="0 0 84 90" fill="none" xmlns="http://www.w3.org/2000/svg">
<path d="M42.0064 0C29.2387 0 18.8018 10.437 18.8018 23.2047C18.8018 35.9724 29.2387 46.4094 42.0064 46.4094C54.7742 46.4094 65.2111 35.9724 65.2111 23.2047C65.2111 10.437 54.7742 0 42.0064 0Z" fill="white"/>
<path d="M81.8294 64.9528C81.2214 63.4328 80.4108 62.0142 79.4989 60.6969C74.8376 53.8063 67.6433 49.2465 59.5369 48.1319C58.5237 48.0306 57.409 48.2331 56.5983 48.8412C52.3424 51.9824 47.276 53.6037 42.0067 53.6037C36.7374 53.6037 31.6709 51.9824 27.415 48.8412C26.6043 48.2331 25.4897 47.9292 24.4765 48.1319C16.37 49.2465 9.07429 53.8063 4.51446 60.6969C3.60249 62.0142 2.79177 63.5342 2.18392 64.9528C1.88 65.5609 0.195977 68.892 0.4999 69.5C1.31062 70.9186 1.3732 70.595 2.28517 71.8109C3.70374 73.7363 6.77771 75.8787 8.50039 77.5C9.91896 78.9186 12.5004 80.5 14.0004 81.5C22.0054 87.4786 31.9751 89.3734 41.9054 89.3734C51.8358 89.3734 61.9954 87.4784 70.0004 81.5C71.6216 80.2841 73.5816 79.4186 75.0004 78C76.6216 76.3787 79.0816 74.9252 80.5004 73C81.5136 71.6827 82.6895 70.9186 83.5 69.5C84.0064 68.892 82.1333 65.5607 81.8294 64.9528Z" fill="white"/>
</svg>
