<svg width="68" height="66" viewBox="0 0 68 66" fill="none" xmlns="http://www.w3.org/2000/svg">
<path d="M51.5123 50.0052C52.1246 50.657 52.4121 51.4922 52.3117 52.327C52.2113 53.1619 51.7313 53.9282 50.977 54.4575L36.3103 64.7492C35.6568 65.2076 34.8405 65.4579 33.9985 65.4579C33.1565 65.4579 32.3402 65.2076 31.6867 64.7492L17.02 54.4575C16.637 54.198 16.3176 53.8753 16.0806 53.5081C15.8435 53.1409 15.6935 52.7366 15.6392 52.3188C15.585 51.901 15.6276 51.478 15.7647 51.0746C15.9017 50.6712 16.1303 50.2953 16.4373 49.9691C16.7443 49.6428 17.1234 49.3725 17.5526 49.1741C17.9818 48.9757 18.4524 48.8531 18.937 48.8134C19.4217 48.7737 19.9106 48.8178 20.3753 48.943C20.84 49.0683 21.2712 49.2722 21.6437 49.5428L34.0003 58.2132L46.3534 49.5428C46.727 49.2804 47.1568 49.084 47.6183 48.965C48.0798 48.8461 48.5639 48.8068 49.043 48.8494C49.5221 48.8921 49.9867 49.0158 50.4104 49.2136C50.8341 49.4113 51.2086 49.6792 51.5123 50.002V50.0052ZM7.26668 25.0455C9.29068 25.0455 10.86 25.625 11.9674 26.7872C13.0784 27.9493 13.6357 29.5897 13.6357 31.7113V34.5803C13.6357 36.7083 13.082 38.3487 11.9747 39.5045C10.8673 40.6603 9.30535 41.2367 7.29235 41.2367C5.26468 41.2367 3.69168 40.6572 2.58068 39.495C1.46968 38.3328 0.916016 36.6957 0.916016 34.5803V31.6987C0.916016 29.5738 1.46602 27.9303 2.57335 26.7777C3.68068 25.6218 5.24635 25.0455 7.26668 25.0455ZM22.1313 25.0455C24.1553 25.0455 25.721 25.625 26.832 26.7872C27.943 27.9493 28.4967 29.5897 28.4967 31.7113V34.5803C28.4967 36.7083 27.9467 38.3487 26.8393 39.5045C25.732 40.6603 24.17 41.2367 22.157 41.2367C20.1257 41.2367 18.5564 40.6572 17.4454 39.495C16.3344 38.3328 15.777 36.6957 15.777 34.5803V31.6987C15.777 29.5738 16.3307 27.9303 17.438 26.7777C18.5453 25.6218 20.111 25.0455 22.1313 25.0455ZM45.8547 25.0455C47.8713 25.0455 49.4407 25.625 50.5517 26.7872C51.6627 27.9493 52.22 29.5897 52.22 31.7113V34.5803C52.22 36.7083 51.6664 38.3487 50.559 39.5045C49.4517 40.6603 47.8897 41.2367 45.8767 41.2367C43.8453 41.2367 42.276 40.6572 41.165 39.495C40.054 38.3328 39.4967 36.6957 39.4967 34.5803V31.6987C39.4967 29.5738 40.0503 27.9303 41.1577 26.7777C42.265 25.6218 43.8307 25.0455 45.851 25.0455H45.8547ZM60.7157 25.0455C62.7397 25.0455 64.3054 25.625 65.4164 26.7872C66.5274 27.9493 67.081 29.5897 67.081 31.7113V34.5803C67.081 36.7083 66.531 38.3487 65.4237 39.5045C64.3164 40.6603 62.7543 41.2367 60.7414 41.2367C58.71 41.2367 57.1407 40.6572 56.0297 39.495C54.9187 38.3328 54.3613 36.6957 54.3613 34.5803V31.6987C54.3613 29.5738 54.915 27.9303 56.0224 26.7777C57.1297 25.6218 58.6954 25.0455 60.7157 25.0455ZM34.0003 36.1668C34.6713 36.1668 35.225 36.3378 35.6687 36.6798C36.1087 37.025 36.3323 37.462 36.3323 37.9972C36.3323 38.5292 36.1124 38.9693 35.6724 39.3113C35.2111 39.6601 34.613 39.8436 34.0003 39.8243C33.3863 39.8438 32.7873 39.6578 32.3283 39.305C32.115 39.1414 31.9455 38.9397 31.8315 38.7139C31.7175 38.488 31.6619 38.2435 31.6684 37.9972C31.6684 37.4683 31.8883 37.0313 32.3283 36.6861C32.7873 36.3334 33.3863 36.1473 34.0003 36.1668ZM7.27035 27.8607C6.94743 27.8446 6.62604 27.9096 6.34497 28.0479C6.0639 28.1861 5.83515 28.3916 5.68635 28.6397C5.35635 29.1622 5.18035 29.9475 5.15468 31.002V35.0268C5.15468 36.2048 5.32701 37.063 5.66802 37.6077C5.81837 37.8655 6.05234 38.0801 6.3414 38.2251C6.63046 38.3702 6.96214 38.4395 7.29602 38.4247C8.01468 38.4247 8.54635 38.1618 8.88735 37.633C9.23202 37.101 9.40802 36.2713 9.41535 35.1345V31.2395C9.41535 30.1058 9.24302 29.2603 8.90202 28.6998C8.75589 28.4368 8.52311 28.2168 8.23285 28.0675C7.94259 27.9183 7.60777 27.8463 7.27035 27.8607ZM22.135 27.8607C21.8121 27.8446 21.4907 27.9096 21.2096 28.0479C20.9286 28.1861 20.6998 28.3916 20.551 28.6397C20.221 29.1622 20.0413 29.9475 20.0194 31.002V35.0268C20.0194 36.2048 20.188 37.063 20.5327 37.6077C20.683 37.8655 20.917 38.0801 21.2061 38.2251C21.4951 38.3702 21.8268 38.4395 22.1607 38.4247C22.8793 38.4247 23.4073 38.1618 23.752 37.633C24.0967 37.101 24.269 36.2713 24.28 35.1345V31.2395C24.28 30.1058 24.1077 29.2603 23.7667 28.6998C23.6206 28.4368 23.3878 28.2168 23.0975 28.0675C22.8073 27.9183 22.4724 27.8463 22.135 27.8607ZM45.8583 27.8607C45.5349 27.8444 45.2129 27.9093 44.9312 28.0475C44.6495 28.1857 44.4201 28.3914 44.2707 28.6397C43.9407 29.1622 43.7647 29.9475 43.739 31.002V35.0268C43.739 36.2048 43.9077 37.063 44.2523 37.6077C44.4027 37.8655 44.6367 38.0801 44.9257 38.2251C45.2148 38.3702 45.5465 38.4395 45.8803 38.4247C46.599 38.4247 47.127 38.1618 47.4717 37.633C47.8163 37.101 47.9923 36.2713 47.9997 35.1345V31.2395C47.9997 30.1058 47.8274 29.2603 47.4864 28.6998C47.3398 28.437 47.107 28.2173 46.8168 28.0681C46.5266 27.9188 46.192 27.8467 45.8547 27.8607H45.8583ZM60.7194 27.8607C60.3964 27.8446 60.075 27.9096 59.794 28.0479C59.5129 28.1861 59.2842 28.3916 59.1353 28.6397C58.8603 29.0735 58.6917 29.6942 58.6257 30.4953L58.6037 31.002V35.0268C58.6037 36.2048 58.7724 37.063 59.117 37.6077C59.2674 37.8655 59.5013 38.0801 59.7904 38.2251C60.0795 38.3702 60.4111 38.4395 60.745 38.4247C61.4637 38.4247 61.9917 38.1618 62.3364 37.633C62.6224 37.1897 62.791 36.5373 62.846 35.676L62.8644 35.1377V31.2395C62.8644 30.1058 62.692 29.2603 62.351 28.6998C62.2045 28.437 61.9716 28.2173 61.6815 28.0681C61.3913 27.9188 61.0567 27.8467 60.7194 27.8607ZM34.0003 27.5313C34.6713 27.5313 35.225 27.7023 35.6687 28.0443C36.1087 28.3863 36.3323 28.8233 36.3323 29.3585C36.3323 29.8937 36.1124 30.3307 35.6724 30.6727C35.2116 31.0226 34.6135 31.2072 34.0003 31.1888C33.3863 31.2083 32.7873 31.0223 32.3283 30.6695C32.1147 30.5054 31.9451 30.3032 31.8311 30.0768C31.7171 29.8504 31.6616 29.6053 31.6684 29.3585C31.6684 28.8328 31.8883 28.3958 32.3283 28.0507C32.7883 27.6971 33.3888 27.511 34.004 27.5313H34.0003ZM17.0237 11.5396L31.6903 1.24798C32.2821 0.83363 33.0085 0.588729 33.7688 0.547302C34.529 0.505875 35.2854 0.669979 35.9327 1.01681L36.314 1.25115L50.9807 11.5428C51.7038 12.0509 52.1756 12.7778 52.3002 13.5757C52.4249 14.3735 52.193 15.1824 51.6517 15.8379C51.1104 16.4933 50.3003 16.9461 49.3863 17.1042C48.4722 17.2622 47.5228 17.1136 46.731 16.6887L46.357 16.4575L34.0003 7.78715L21.6437 16.4575C20.9199 16.9624 20.0009 17.2108 19.0729 17.1524C18.1449 17.0939 17.2774 16.7329 16.6461 16.1426C16.0148 15.5523 15.667 14.7768 15.6731 13.9733C15.6792 13.1697 16.0388 12.3982 16.679 11.8151L17.02 11.546L31.6867 1.25431L17.02 11.546L17.0237 11.5396Z" fill="#0B954E"/>
</svg>
