<svg width="75" height="65" viewBox="0 0 75 65" fill="none" xmlns="http://www.w3.org/2000/svg">
<path d="M38.4506 14.9736C38.3008 15.476 38.587 16.0039 39.089 16.1536L39.1887 16.1834L39.193 16.1784C39.6639 16.2635 40.1309 15.9815 40.2692 15.5145C41.53 11.278 45.5023 8.31839 49.9278 8.31839C50.4518 8.31839 50.8767 7.89343 50.8767 7.3695C50.8767 6.84554 50.4518 6.42061 49.9278 6.42061C44.4888 6.42061 39.9182 10.0419 38.4506 14.9736ZM38.4506 14.9736L38.6053 15.0197M38.4506 14.9736C38.4506 14.9736 38.4506 14.9736 38.4506 14.9737L38.6053 15.0197M38.6053 15.0197C38.481 15.4365 38.7184 15.8747 39.1351 15.999L38.6053 15.0197Z" fill="white" stroke="#F9FFF9" stroke-width="0.322847"/>
<path d="M60.952 45.955H56.2274C55.7926 45.955 55.4399 45.6024 55.4399 45.1676C55.4399 44.7328 55.7926 44.3801 56.2274 44.3801H60.952C67.4648 44.3801 72.7639 39.081 72.7639 32.5683C72.7639 26.0555 67.4648 20.7564 60.952 20.7564H60.8384C60.6101 20.7564 60.3929 20.6574 60.2433 20.4848C60.0937 20.3121 60.0262 20.0831 60.0588 19.857C60.1292 19.3666 60.1646 18.8738 60.1646 18.3941C60.1646 12.7497 55.572 8.15708 49.9276 8.15708C47.7317 8.15708 45.6376 8.8433 43.8714 10.142C43.4833 10.4272 42.9321 10.3006 42.7077 9.87372C37.7057 0.348914 24.641 -0.930171 17.8676 7.35558C15.0142 10.8462 13.8931 15.387 14.7915 19.8126C14.8905 20.3014 14.5164 20.757 14.0197 20.757H13.7042C7.19143 20.757 1.89237 26.0561 1.89237 32.5689C1.89237 39.0816 7.19143 44.3807 13.7042 44.3807H18.4289C18.8637 44.3807 19.2163 44.7334 19.2163 45.1682C19.2163 45.603 18.8637 45.9556 18.4289 45.9556H13.7042C6.32287 45.9556 0.317383 39.9501 0.317383 32.5688C0.317383 25.3945 5.99039 19.5201 13.086 19.1961C12.4195 14.6046 13.6941 9.97325 16.6481 6.35889C23.9 -2.51291 37.7977 -1.51849 43.6726 8.37421C45.5468 7.1992 47.6914 6.5828 49.9273 6.5828C56.7658 6.5828 62.1847 12.4033 61.7105 19.2034C68.7408 19.5977 74.3385 25.4412 74.3385 32.5682C74.3385 39.9501 68.333 45.9551 60.9517 45.9551L60.952 45.955Z" fill="white"/>
<path d="M17.3747 44.7228C17.3747 55.6672 26.2785 64.5708 37.2228 64.5708C48.1672 64.5708 57.0708 55.6671 57.0708 44.7228C57.0708 33.7783 48.1672 24.8747 37.2228 24.8747C26.2783 24.8747 17.3747 33.7785 17.3747 44.7228ZM19.2728 44.7228C19.2728 34.8255 27.3253 26.7728 37.2228 26.7728C47.1201 26.7728 55.1727 34.8253 55.1727 44.7228C55.1727 54.6201 47.1201 62.6727 37.2228 62.6727C27.3255 62.6727 19.2728 54.6202 19.2728 44.7228Z" fill="white" stroke="#F9FFF9" stroke-width="0.322847"/>
<path d="M36.8444 52.6479C36.8444 53.0553 37.1749 53.3858 37.5824 53.3858C37.9898 53.3858 38.3203 53.0558 38.3203 52.6479V37.6585C38.3203 37.2511 37.9898 36.9206 37.5824 36.9206C37.1749 36.9206 36.8444 37.2511 36.8444 37.6585V52.6479Z" fill="white" stroke="#B2CFF1" stroke-width="0.322847"/>
<path d="M37.5822 38.7037L33.4921 42.7938C33.2041 43.0823 32.7366 43.0822 32.4483 42.7939C32.1601 42.5056 32.1601 42.0386 32.4483 41.7503L37.0603 37.1384L37.5822 38.7037ZM37.5822 38.7037L41.6724 42.7939C41.8163 42.9378 42.0057 43.01 42.1942 43.01L37.5822 38.7037ZM42.1942 43.01C42.3824 43.01 42.5719 42.9385 42.7161 42.7939L42.1942 43.01Z" fill="white" stroke="#B2CFF1" stroke-width="0.322847"/>
</svg>
