<svg width="30" height="30" viewBox="0 0 30 30" fill="none" xmlns="http://www.w3.org/2000/svg">
<path d="M26.25 22.5V23.75C26.25 24.413 25.9866 25.0489 25.5178 25.5178C25.0489 25.9866 24.413 26.25 23.75 26.25H6.25C5.58696 26.25 4.95107 25.9866 4.48223 25.5178C4.01339 25.0489 3.75 24.413 3.75 23.75V6.25C3.75 5.58696 4.01339 4.95107 4.48223 4.48223C4.95107 4.01339 5.58696 3.75 6.25 3.75H23.75C24.413 3.75 25.0489 4.01339 25.5178 4.48223C25.9866 4.95107 26.25 5.58696 26.25 6.25V7.5H15C14.337 7.5 13.7011 7.76339 13.2322 8.23223C12.7634 8.70107 12.5 9.33696 12.5 10V20C12.5 20.663 12.7634 21.2989 13.2322 21.7678C13.7011 22.2366 14.337 22.5 15 22.5H26.25ZM15 20H27.5V10H15V20ZM20 16.875C19.5027 16.875 19.0258 16.6775 18.6742 16.3258C18.3225 15.9742 18.125 15.4973 18.125 15C18.125 14.5027 18.3225 14.0258 18.6742 13.6742C19.0258 13.3225 19.5027 13.125 20 13.125C20.4973 13.125 20.9742 13.3225 21.3258 13.6742C21.6775 14.0258 21.875 14.5027 21.875 15C21.875 15.4973 21.6775 15.9742 21.3258 16.3258C20.9742 16.6775 20.4973 16.875 20 16.875Z" fill="white"/>
</svg>
